REM MD5 19b4a7b71be6ce56c95bca0ac371a113
FILE "Colin McRae Rally (Italy) (Rev 1).bin" BINARY
  TRACK 01 MODE2/2352
    INDEX 01 00:00:00
  TRACK 02 AUDIO
    INDEX 00 20:07:45
    INDEX 01 20:09:45
  TRACK 03 AUDIO
    INDEX 00 25:23:45
    INDEX 01 25:25:45
  TRACK 04 AUDIO
    INDEX 00 28:22:70
    INDEX 01 28:24:70
REM LEADOUT 33:38:68
